<?xml version="1.0" standalone="no"?>
<!DOCTYPE svg PUBLIC "-//W3C//DTD SVG 20010904//EN"
 "http://www.w3.org/TR/2001/REC-SVG-20010904/DTD/svg10.dtd">
<svg version="1.0" xmlns="http://www.w3.org/2000/svg"
 width="512.000000pt" height="512.000000pt" viewBox="0 0 512.000000 512.000000"
 preserveAspectRatio="xMidYMid meet">
<metadata>
Created by potrace 1.14, written by Peter Selinger 2001-2017
</metadata>
<g transform="translate(0.000000,512.000000) scale(0.100000,-0.100000)"
fill="#000000" stroke="none">
<path d="M3904 4915 c-132 -94 -250 -242 -309 -388 -57 -140 -77 -268 -76
-479 l0 -137 -32 7 c-43 9 -320 9 -379 -1 -116 -19 -253 -73 -348 -138 -231
-156 -413 -434 -445 -679 -4 -30 -9 -64 -11 -75 -3 -11 -5 -74 -5 -140 l0
-120 -147 0 c-81 0 -167 -3 -192 -6 -275 -37 -538 -227 -669 -483 -77 -150
-102 -277 -97 -491 2 -82 5 -157 7 -165 3 -13 -13 -15 -106 -16 -245 -2 -407
-31 -547 -97 -141 -67 -282 -192 -364 -322 -19 -30 -19 -30 24 6 42 36 150 99
170 99 13 0 912 -899 912 -912 0 -20 -63 -128 -99 -170 l-36 -42 33 19 c54 32
163 133 219 203 63 78 123 199 151 302 35 128 44 205 43 386 l0 130 52 -7 c97
-14 345 -3 428 19 171 46 320 132 431 251 116 122 175 225 224 387 24 79 27
109 30 264 l4 175 79 1 c192 4 283 17 412 59 197 65 415 241 535 431 46 74
100 207 110 272 3 20 9 54 14 75 8 38 7 337 -1 367 -3 13 15 15 117 16 245 2
393 30 538 100 95 45 154 88 237 169 62 62 137 155 124 155 -6 0 -67 -41 -75
-51 -3 -4 -31 -20 -63 -36 l-58 -29 -452 453 c-368 368 -452 457 -450 477 2
27 61 126 101 169 34 36 26 34 -34 -8z m268 -752 l383 -381 -35 -5 c-56 -8
-247 1 -267 12 -10 5 -120 113 -245 238 -205 206 -228 233 -229 263 -8 178 -5
268 7 258 2 -2 176 -175 386 -385z m-262 -259 c67 -69 72 -76 45 -69 -16 4
-43 9 -60 12 -16 3 -33 8 -37 11 -3 4 -8 21 -11 37 -3 17 -8 42 -12 58 -4 15
-5 27 -3 27 2 0 37 -34 78 -76z m-893 -283 c27 -1 67 -37 318 -288 l288 -286
0 -129 c0 -70 -2 -130 -5 -133 -5 -5 -838 821 -838 830 0 9 76 10 237 6z m511
-53 c25 -1 35 -12 40 -46 9 -65 28 -222 28 -222 -1 0 -68 67 -149 148 l-148
149 103 -14 c57 -8 113 -15 126 -15z m-439 -492 l433 -433 -43 -7 c-83 -14
-94 -16 -149 -20 l-55 -4 -331 332 -331 331 4 65 c4 77 22 170 31 170 4 0 202
-195 441 -434z m-69 -438 c0 -3 -15 -3 -32 2 -18 4 -87 18 -153 30 -67 11
-126 24 -132 28 -6 4 -13 21 -16 37 -3 17 -8 41 -11 55 -3 14 -8 39 -10 55 -3
17 -7 41 -11 55 -3 14 -8 45 -11 69 -2 24 -7 49 -11 55 -3 6 83 -77 191 -184
108 -107 196 -198 196 -202z m-1187 -192 c38 -4 76 -11 85 -16 10 -5 131 -123
270 -263 183 -185 252 -261 253 -278 0 -13 2 -32 4 -43 8 -40 13 -216 7 -216
-4 0 -193 186 -420 413 l-413 414 73 -3 c40 -1 104 -5 141 -8z m461 -76 c33
-5 61 -11 62 -13 5 -5 35 -159 32 -162 -2 -2 -48 41 -103 96 -76 76 -94 99
-75 95 14 -3 52 -10 84 -16z m21 -870 c-26 -4 -110 -5 -212 -1 -28 1 -67 36
-318 288 -277 278 -285 288 -286 327 -2 48 -2 182 0 213 1 16 102 -79 424
-400 407 -407 421 -422 392 -427z m-505 29 c0 -3 -24 -2 -52 2 -29 5 -77 11
-107 15 -78 9 -80 9 -88 17 -4 4 -8 15 -9 25 -7 56 -27 200 -30 217 -2 11 58
-42 141 -125 80 -80 145 -148 145 -151z m-717 -416 c125 -125 233 -237 239
-247 11 -21 19 -250 9 -279 -5 -13 -90 66 -389 364 -210 210 -382 383 -382
385 0 7 57 10 170 8 l124 -3 229 -228z m117 163 l55 -12 12 -55 c7 -30 11 -57
10 -61 -1 -3 -35 27 -76 68 -41 41 -70 74 -65 74 5 -1 34 -7 64 -14z"/>
</g>
</svg>
